HIERARCHY
ROOT Hips
{
	OFFSET 0.000000 0.000000 0.000000
	CHANNELS 6 Xposition Yposition Zposition Xrotation Yrotation Zrotation
	JOINT LeftUpLeg_virtual
	{
		OFFSET 0.000000 0.000000 0.000000
		CHANNELS 3 Xrotation Yrotation Zrotation
		JOINT LeftUpLeg
		{
			OFFSET 13.026900 -6.336304 -1.092800
			CHANNELS 3 Xrotation Yrotation Zrotation
			JOINT LeftLeg
			{
				OFFSET 0.524474 -46.096886 9.782700
				CHANNELS 3 Xrotation Yrotation Zrotation
				JOINT LeftFoot
				{
					OFFSET -0.524474 -53.427422 -12.948200
					CHANNELS 3 Xrotation Yrotation Zrotation
					JOINT LeftToeBase
					{
						OFFSET 0.192200 -14.009700 16.364100
						CHANNELS 3 Xrotation Yrotation Zrotation
						JOINT LeftToe_End
						{
							OFFSET -1.784700 -0.561700 9.474800
							CHANNELS 3 Xrotation Yrotation Zrotation
							End Site
							{
								OFFSET 0 0 0
							}
						}
					}
				}
			}
		}
	}
	JOINT RightUpLeg_virtual
	{
		OFFSET 0.000000 0.000000 0.000000
		CHANNELS 3 Xrotation Yrotation Zrotation
		JOINT RightUpLeg
		{
			OFFSET -12.883000 -6.336304 -1.092800
			CHANNELS 3 Xrotation Yrotation Zrotation
			JOINT RightLeg
			{
				OFFSET -0.524587 -46.096825 9.782800
				CHANNELS 3 Xrotation Yrotation Zrotation
				JOINT RightFoot
				{
					OFFSET 0.524587 -53.427383 -12.948300
					CHANNELS 3 Xrotation Yrotation Zrotation
					JOINT RightToeBase
					{
						OFFSET -0.192200 -14.009700 16.364100
						CHANNELS 3 Xrotation Yrotation Zrotation
						JOINT RightToe_End
						{
							OFFSET 1.784700 -0.561700 9.474800
							CHANNELS 3 Xrotation Yrotation Zrotation
							End Site
							{
								OFFSET 0 0 0
							}
						}
					}
				}
			}
		}
	}
	JOINT Spine_virtual
	{
		OFFSET 0.000000 0.000000 0.000000
		CHANNELS 3 Xrotation Yrotation Zrotation
		JOINT Spine
		{
			OFFSET 0.072000 7.257294 -0.789700
			CHANNELS 3 Xrotation Yrotation Zrotation
			JOINT Spine1
			{
				OFFSET 0.000000 12.508769 -0.658067
				CHANNELS 3 Xrotation Yrotation Zrotation
				JOINT Spine1_split
				{
					OFFSET 0.000000 12.508769 -0.658067
					CHANNELS 3 Xrotation Yrotation Zrotation
					JOINT Spine2
					{
						OFFSET 0.000000 12.508769 -0.658067
						CHANNELS 3 Xrotation Yrotation Zrotation
						JOINT Neck_virtual
						{
							OFFSET 0.000000 0.000000 0.000000
							CHANNELS 3 Xrotation Yrotation Zrotation
							JOINT Neck
							{
								OFFSET 0.000000 14.033295 7.520400
								CHANNELS 3 Xrotation Yrotation Zrotation
								JOINT Head
								{
									OFFSET 0.000000 8.198502 5.703100
									CHANNELS 3 Xrotation Yrotation Zrotation
									JOINT HeadTop_End
									{
										OFFSET 0.000000 17.760803 13.332701
										CHANNELS 3 Xrotation Yrotation Zrotation
										End Site
										{
											OFFSET 0 0 0
										}
									}
								}
							}
						}
						JOINT LeftShoulder_virtual
						{
							OFFSET 0.000000 0.000000 0.000000
							CHANNELS 3 Xrotation Yrotation Zrotation
							JOINT LeftShoulder
							{
								OFFSET 6.292450 5.785301 -0.669000
								CHANNELS 3 Xrotation Yrotation Zrotation
								JOINT LeftShoulder_split
								{
									OFFSET 6.292450 5.785301 -0.669000
									CHANNELS 3 Xrotation Yrotation Zrotation
									JOINT LeftArm
									{
										OFFSET 13.907140 -6.093903 1.965100
										CHANNELS 3 Xrotation Yrotation Zrotation
										JOINT LeftForeArm
										{
											OFFSET 34.140198 0.000000 0.000000
											CHANNELS 3 Xrotation Yrotation Zrotation
											JOINT LeftHand
											{
												OFFSET 40.960209 0.000000 0.000000
												CHANNELS 3 Xrotation Yrotation Zrotation
												End Site
												{
													OFFSET 0 0 0
												}
											}
										}
									}
								}
							}
						}
						JOINT RightShoulder_virtual
						{
							OFFSET 0.000000 0.000000 0.000000
							CHANNELS 3 Xrotation Yrotation Zrotation
							JOINT RightShoulder
							{
								OFFSET -6.292450 5.785301 -0.669000
								CHANNELS 3 Xrotation Yrotation Zrotation
								JOINT RightShoulder_split
								{
									OFFSET -6.292450 5.785301 -0.669000
									CHANNELS 3 Xrotation Yrotation Zrotation
									JOINT RightArm
									{
										OFFSET -13.907140 -6.093903 1.965100
										CHANNELS 3 Xrotation Yrotation Zrotation
										JOINT RightForeArm
										{
											OFFSET -34.140198 0.000000 0.000000
											CHANNELS 3 Xrotation Yrotation Zrotation
											JOINT RightHand
											{
												OFFSET -40.960209 0.000000 0.000000
												CHANNELS 3 Xrotation Yrotation Zrotation
												End Site
												{
													OFFSET 0 0 0
												}
											}
										}
									}
								}
							}
						}
					}
				}
			}
		}
	}
}
MOTION
Frames: 8
Frame Time: 0.03333333
15.859669 118.961853 -13.833441 0.000000 0.000000 0.000000 -0.741772 -21.146761 0.194711 -10.413861 12.934955 -1.483959 15.004973 3.540807 4.150811 -2.495224 19.109934 -4.730369 -0.117316 -1.816805 0.329108 0.000000 0.000000 0.000000 -0.260881 -19.998529 0.252164 -15.299851 -7.594345 -6.914313 13.126187 7.373932 -1.624557 -7.807398 -8.958024 9.709276 4.088693 2.683941 -5.647110 0.000000 0.000000 0.000000 -2.050168 -16.656403 -1.031518 3.492949 0.695581 -0.338533 -0.119618 -1.662097 0.013335 0.140748 -0.272262 0.036996 0.000000 0.000000 0.000000 1.189939 0.294378 -0.337787 -0.869303 8.715651 7.715822 -0.540808 1.426217 -14.317358 0.000000 0.000000 0.000000 0.038789 -1.103307 -0.486144 2.703207 -3.842055 -8.525371 2.249786 -1.608931 -3.863475 -11.436486 -9.955875 -60.751391 4.878404 -19.304679 -3.480450 0.000000 0.000000 0.000000 0.784263 -0.771746 -0.118721 2.598900 -3.881383 15.848747 -6.857626 -0.545624 -0.145730 6.230006 -0.671300 66.212441 -1.302210 17.346775 4.431095 0.000000 0.000000 0.000000 
16.558174 118.989548 -13.644239 0.000000 0.000000 0.000000 -0.670967 -22.046485 0.134467 -10.201667 13.089739 -1.872634 14.816711 3.574884 4.253212 -2.478696 19.525242 -4.496281 -0.388299 -1.708845 0.346370 0.000000 0.000000 0.000000 -0.194115 -20.820961 0.170915 -15.351028 -7.215606 -6.787035 12.893445 7.702001 -1.667880 -8.034301 -9.091021 9.361454 4.172548 2.641613 -5.586774 0.000000 0.000000 0.000000 -2.014247 -17.349753 -1.171025 3.350733 0.440097 -0.455505 -0.106969 -1.840828 0.047386 0.150268 -0.273996 0.036126 0.000000 0.000000 0.000000 1.204733 0.113448 -0.324457 -0.843146 8.947998 7.884629 -0.522141 2.038850 -14.445102 0.000000 0.000000 0.000000 0.061246 -1.285813 -0.466143 2.787710 -4.252798 -8.702759 2.206711 -1.489101 -3.735991 -12.142229 -11.273771 -61.373293 5.112628 -19.671476 -3.550426 0.000000 0.000000 0.000000 0.780982 -0.940342 -0.101589 2.517059 -4.008034 16.248475 -6.766479 -0.602956 -0.257809 5.719717 -0.449780 66.736358 -0.821631 17.754792 4.112129 0.000000 0.000000 0.000000 
17.213379 119.024010 -13.461119 0.000000 0.000000 0.000000 -0.563150 -22.885758 0.056153 -10.056487 13.245970 -2.189597 14.656310 3.610970 4.366422 -2.417937 19.907879 -4.245094 -0.666124 -1.613843 0.361496 0.000000 0.000000 0.000000 -0.097371 -21.587653 0.072504 -15.351711 -6.889493 -6.622437 12.580085 7.932536 -1.690922 -8.234965 -9.244920 8.938305 4.271153 2.596061 -5.502042 0.000000 0.000000 0.000000 -1.938066 -18.012348 -1.321024 3.206285 0.172615 -0.610491 -0.067156 -2.022309 0.089450 0.160945 -0.263634 0.031798 0.000000 0.000000 0.000000 1.251813 -0.069345 -0.300128 -0.794604 9.176539 8.039682 -0.602506 2.519748 -14.485146 0.000000 0.000000 0.000000 0.120677 -1.469072 -0.433471 2.863055 -4.717986 -8.858906 2.168795 -1.365341 -3.650923 -12.695962 -12.857899 -61.959672 5.356064 -20.287789 -3.558925 0.000000 0.000000 0.000000 0.819239 -1.110114 -0.072771 2.417199 -4.141646 16.707874 -6.696130 -0.663655 -0.389103 5.090536 -0.199805 67.218125 -0.233386 18.073171 3.770814 0.000000 0.000000 0.000000 
17.814953 119.073570 -13.293669 0.000000 0.000000 0.000000 -0.399110 -23.624801 -0.028897 -9.988793 13.403612 -2.436962 14.496230 3.643458 4.486134 -2.339209 20.240636 -3.977457 -0.914480 -1.531997 0.377580 0.000000 0.000000 0.000000 0.042662 -22.289211 -0.029256 -15.336800 -6.611835 -6.463803 12.192201 8.084696 -1.686449 -8.285549 -9.391298 8.554400 4.280227 2.560273 -5.395970 0.000000 0.000000 0.000000 -1.799166 -18.620219 -1.465499 3.046544 -0.106934 -0.820143 -0.007260 -2.206864 0.131357 0.166849 -0.247675 0.029620 0.000000 0.000000 0.000000 1.321976 -0.254093 -0.274346 -0.721790 9.403853 8.190036 -0.743894 2.896009 -14.427981 0.000000 0.000000 0.000000 0.209058 -1.653198 -0.394443 2.929644 -5.220812 -8.965562 2.130836 -1.228166 -3.582918 -13.128392 -14.667413 -62.513136 5.615011 -21.178216 -3.498445 0.000000 0.000000 0.000000 0.892504 -1.281950 -0.043287 2.301361 -4.299757 17.219066 -6.643452 -0.743878 -0.548798 4.385374 0.060300 67.639158 0.457909 18.326347 3.403024 0.000000 0.000000 0.000000 
18.371204 119.140106 -13.145182 0.000000 0.000000 0.000000 -0.176090 -24.229136 -0.115390 -10.025177 13.558953 -2.610929 14.317457 3.649493 4.602886 -2.239457 20.491035 -3.730899 -1.151118 -1.461680 0.406013 0.000000 0.000000 0.000000 0.246378 -22.914948 -0.124297 -15.324236 -6.374269 -6.335509 11.720109 8.188575 -1.649794 -8.162242 -9.500248 8.298178 4.190735 2.541998 -5.269177 0.000000 0.000000 0.000000 -1.579059 -19.155776 -1.595976 2.860416 -0.396687 -1.097921 0.064869 -2.394426 0.165217 0.171455 -0.229310 0.029482 0.000000 0.000000 0.000000 1.406111 -0.441168 -0.254613 -0.645232 9.627504 8.348320 -0.909217 3.199187 -14.260583 0.000000 0.000000 0.000000 0.318184 -1.838707 -0.357693 2.987351 -5.749420 -8.999604 2.088488 -1.088963 -3.559443 -13.472627 -16.637578 -63.038657 5.886130 -22.252002 -3.380671 0.000000 0.000000 0.000000 0.994361 -1.457820 -0.023138 2.173420 -4.490787 17.771621 -6.595868 -0.859347 -0.731218 3.664618 0.301254 68.004355 1.236288 18.586135 3.011392 0.000000 0.000000 0.000000 
18.878559 119.216057 -13.014376 0.000000 0.000000 0.000000 0.111679 -24.702761 -0.198495 -10.167986 13.694944 -2.714877 14.125218 3.621740 4.706444 -2.099694 20.652544 -3.526677 -1.399627 -1.403775 0.454734 0.000000 0.000000 0.000000 0.519238 -23.442032 -0.212356 -15.296304 -6.174421 -6.237866 11.162544 8.249294 -1.583718 -7.958010 -9.565636 8.149447 4.059840 2.544617 -5.122132 0.000000 0.000000 0.000000 -1.273859 -19.607081 -1.705264 2.650680 -0.687437 -1.449087 0.142581 -2.583163 0.186553 0.173386 -0.209199 0.030701 0.000000 0.000000 0.000000 1.502295 -0.626705 -0.246816 -0.574690 9.848510 8.525860 -1.074707 3.455000 -13.969094 0.000000 0.000000 0.000000 0.445735 -2.023574 -0.329862 3.037356 -6.294249 -8.965082 2.041331 -0.929018 -3.547472 -13.725689 -18.699711 -63.528594 6.149053 -23.372883 -3.222296 0.000000 0.000000 0.000000 1.122163 -1.635708 -0.018064 2.038871 -4.710396 18.338993 -6.544881 -0.997708 -0.919591 2.997622 0.500573 68.322130 2.073940 18.927217 2.604595 0.000000 0.000000 0.000000 
19.342716 119.294792 -12.912043 0.000000 0.000000 0.000000 0.462157 -25.067054 -0.279448 -10.428499 13.801499 -2.751996 13.960856 3.582316 4.787057 -1.921006 20.744873 -3.352438 -1.639082 -1.354184 0.505095 0.000000 0.000000 0.000000 0.858192 -23.864338 -0.295419 -15.227692 -6.029062 -6.153726 10.577285 8.230593 -1.497195 -7.798672 -9.627392 8.005061 3.979920 2.567357 -4.949109 0.000000 0.000000 0.000000 -0.897721 -19.970899 -1.795750 2.429663 -0.961414 -1.871868 0.226320 -2.765172 0.195147 0.173002 -0.202049 0.032023 0.000000 0.000000 0.000000 1.611083 -0.804687 -0.251237 -0.532729 10.059839 8.727843 -1.246972 3.698938 -13.541781 0.000000 0.000000 0.000000 0.588761 -2.203038 -0.312660 3.078628 -6.850427 -8.862541 1.981958 -0.792055 -3.564030 -13.879467 -20.728214 -63.949839 6.368465 -24.410104 -3.046607 0.000000 0.000000 0.000000 1.267957 -1.810193 -0.026216 1.899793 -4.936554 18.890813 -6.483994 -1.136444 -1.100573 2.440337 0.652383 68.603240 2.933188 19.373418 2.196873 0.000000 0.000000 0.000000 
19.758986 119.367287 -12.820524 0.000000 0.000000 0.000000 0.863352 -25.355078 -0.361962 -10.791687 13.879316 -2.724508 13.841670 3.556765 4.848150 -1.736301 20.792303 -3.185276 -1.868103 -1.307480 0.547621 0.000000 0.000000 0.000000 1.241505 -24.186899 -0.382650 -15.118269 -5.949999 -6.064985 10.007957 8.118392 -1.394033 -7.744371 -9.704611 7.818967 3.973094 2.610269 -4.755950 0.000000 0.000000 0.000000 -0.474675 -20.253169 -1.877590 2.222183 -1.198053 -2.348576 0.317157 -2.931347 0.193913 0.174415 -0.195959 0.028423 0.000000 0.000000 0.000000 1.731264 -0.967384 -0.265120 -0.533466 10.258504 8.954524 -1.435169 3.954071 -12.975423 0.000000 0.000000 0.000000 0.750937 -2.370450 -0.305290 3.114483 -7.407403 -8.713946 1.904544 -0.671180 -3.604979 -13.936810 -22.606313 -64.265762 6.520092 -25.316916 -2.871479 0.000000 0.000000 0.000000 1.432145 -1.971945 -0.043014 1.758447 -5.139546 19.394030 -6.399371 -1.269258 -1.245809 2.042460 0.760940 68.848628 3.775237 19.889335 1.805321 0.000000 0.000000 0.000000 
